<svg width="84" height="84" viewBox="0 0 84 84" 
    xmlns="http://www.w3.org/2000/svg">
    <title>icn-amazon-a</title>
    <path d="M41.698 83.271c-15.622 0-29.691-5.775-40.337-15.388-.836-.755-.09-1.785.915-1.2 11.485 6.683 25.69 10.708 40.36 10.708 9.896 0 20.775-2.054 30.785-6.3 1.51-.64 2.775.995 1.298 2.087C65.79 79.767 52.845 83.27 41.698 83.27zM67.95 68.717c-.872.104-1.007-.658-.222-1.21 5.112-3.59 13.487-2.553 14.46-1.35.98 1.212-.258 9.608-5.047 13.615-.737.616-1.438.287-1.111-.526 1.078-2.692 3.49-8.718 2.348-10.181-1.143-1.462-7.55-.693-10.428-.348zm-7.414-4.182c-.756.68-1.853.725-2.707.266-3.808-3.163-4.49-4.624-6.569-7.637-6.293 6.409-10.747 8.332-18.894 8.332-9.649 0-17.153-5.956-17.153-17.863 0-9.303 5.037-15.628 12.221-18.729 6.217-2.73 14.902-3.226 21.547-3.972v-1.488c0-2.73.216-5.952-1.391-8.31-1.396-2.11-4.076-2.978-6.433-2.978-4.371 0-8.26 2.239-9.21 6.88-.2 1.034-.954 2.057-1.992 2.11l-11.107-1.204c-.94-.213-1.982-.963-1.712-2.397C19.688 4.07 31.857 0 42.764 0c5.575 0 12.865 1.487 17.26 5.706 5.575 5.21 5.04 12.157 5.04 19.726v17.85c0 5.373 2.23 7.728 4.324 10.62.73 1.045.897 2.284-.036 3.047a487.723 487.723 0 0 0-8.79 7.612l-.026-.026zM48.98 36.593c0 4.467.108 8.186-2.143 12.157-1.821 3.223-4.717 5.21-7.934 5.21-4.393 0-6.968-3.35-6.968-8.312 0-9.761 8.757-11.535 17.045-11.535v2.48z" fill="#000" fill-rule="evenodd"/>
</svg>